<?xml version="1.0" standalone="no"?><!DOCTYPE svg PUBLIC "-//W3C//DTD SVG 1.1//EN" "http://www.w3.org/Graphics/SVG/1.1/DTD/svg11.dtd"><svg class="icon" width="200px" height="200.00px" viewBox="0 0 1024 1024" version="1.1" xmlns="http://www.w3.org/2000/svg"><path d="M528.709463 791.555231l0.098331-0.049165-0.098331 0.049165zM611.512597 808.702712c17.849202-10.706839 31.94844-19.161019 63.005202-19.161019 31.056762 0 45.153766 8.456414 62.998498 19.163253 19.947662 11.967256 42.556949 25.532382 85.994403 25.532382s66.04674-13.562891 85.992167-25.532382c17.844732-10.706839 31.941736-19.163254 62.998498-19.163253 12.340465 0 22.347818-10.007353 22.347818-22.347818 0-12.3427-10.007353-22.347818-22.347818-22.347818-43.439688 0-66.04674 13.562891-85.992167 25.532382-17.844732 10.706839-31.941736 19.163254-62.998498 19.163254-31.058997 0-45.156-8.456414-63.000733-19.163254-12.997491-7.797154-27.166007-16.251333-47.448887-21.210314l-167.606397 83.987569c30.931614-3.423686 49.560755-14.557368 66.057914-24.452982zM972.505835 878.932963c-43.439688 0-66.04674 13.562891-85.992168 25.532382-17.844732 10.706839-31.941736 19.163254-62.998498 19.163254-31.058997 0-45.156-8.456414-63.000733-19.163254-19.947662-11.967256-42.554714-25.532382-85.992167-25.532382-43.437453 0-66.044505 13.562891-85.989933 25.532382-17.844732 10.706839-31.939501 19.163254-62.996263 19.163254-31.054527 0-45.149296-8.456414-62.996263-19.163254-8.657545-5.195868-17.822385-10.686726-28.967241-15.243446l-69.774356 34.965395a140.619173 140.619173 0 0 1 12.753899-0.556461c31.054527 0 45.147061 8.456414 62.991794 19.163254 19.947662 11.965022 42.554714 25.532382 85.992167 25.532382s66.04674-13.562891 85.992168-25.532382c17.844732-10.706839 31.939501-19.163254 62.996263-19.163254s45.153766 8.456414 62.998498 19.163254c19.947662 11.967256 42.556949 25.532382 85.994402 25.532382s66.04674-13.562891 85.992167-25.532382c17.844732-10.706839 31.941736-19.163254 62.998498-19.163254 12.340465 0 22.347818-10.007353 22.347818-22.347817-0.002235-12.344934-10.007353-22.350052-22.350052-22.350053z" fill="#6ECCAE" /><path d="M433.411665 464.320607a353.388275 353.388275 0 0 0 6.934527-6.981458c8.574858-8.881023 22.725496-9.122379 31.599814-0.547522 8.878788 8.574858 9.122379 22.723261 0.547522 31.599814-9.526875 9.862092-19.105149 18.716297-28.752702 26.689999a843.84689 843.84689 0 0 0 69.443608 189.299424L763.804035 466.215702 459.518385 69.162026a844.602246 844.602246 0 0 0-26.10672 395.158581z" fill="#B4F0DF" /><path d="M236.145243 705.031186c6.45405-18.99341 11.895743-44.063192 16.561968-77.017284 3.557773-24.98933 6.532267-47.167304 8.031806-66.424419-29.099093-6.55238-59.842986-18.783341-92.707687-36.851551-10.816344-5.944519-14.762968-19.531993-8.816214-30.348336s19.531993-14.767438 30.348336-8.816214c25.282086 13.898108 48.707069 23.889817 70.773304 29.984067-0.710661-4.831598-1.673852-9.334683-2.994608-13.410926-5.455102-16.827907-17.627959-33.409987-69.291643-40.746776-10.096744-1.439199-19.30181-2.167738-27.364903-2.167738-53.578893 0-64.824315 28.985119-81.118108 144.168006-7.32338 51.402215-7.618371 86.78775-0.603391 110.248489 47.605321-36.773334 107.546638-41.142332 156.298402-9.214005 0.294991 0.196661 0.587748 0.400026 0.882738 0.596687zM106.885466 748.522273c9.955953 5.186928 22.7322 8.802805 38.80922 11.064405 8.156953 1.148678 15.723924 1.727486 22.488609 1.727486 18.593384 0 33.807779-3.765607 46.382896-16.848019a89.576757 89.576757 0 0 0-3.799129-2.641512c-32.339527-21.183496-71.343173-18.148663-103.881596 6.69764zM210.796114 363.32188c46.908069 0 85.069203-38.172307 85.069203-85.09155 0-46.894661-38.161133-85.04909-85.069203-85.04909-46.912539 0-85.078142 38.152194-85.078142 85.04909-0.002235 46.919243 38.163368 85.09155 85.078142 85.09155z" fill="#FFAC52" /><path d="M545.459153 833.155694l167.606397-83.987569 110.375871-55.308613c11.035352-5.531085 15.498212-18.955419 9.969362-29.990772-5.531085-11.039822-18.959888-15.500446-29.990771-9.969361l-274.609984 137.604452-0.09833 0.049165-53.762145 26.940294c-27.823033-112.655349-103.640239-163.679886-170.697101-163.849729h-0.353095c-3.423686 0-6.80491 0.145261-10.152614 0.395557 1.139739-6.751276 2.212434-13.656751 3.215851-20.743245 3.517546-24.712217 6.476398-46.981817 8.101084-67.110496 1.526356 0.035757 3.059416 0.093861 4.579068 0.093861 8.34691 0 16.570907-0.525174 24.671991-1.571052 24.137878-3.117521 47.386313-10.894561 70.067112-23.471913a888.884446 888.884446 0 0 0 83.328308 209.425869 22.345583 22.345583 0 0 0 34.947517 5.37465L809.163401 484.76886a22.350052 22.350052 0 0 0 2.344286-29.79411L469.541381 8.75811a22.352287 22.352287 0 0 0-38.722063 5.904293c-57.134431 155.918489-68.9676 322.601921-36.927534 481.765314-28.053215 18.150897-56.817092 26.801738-87.983358 26.144711-0.808991-12.458908-2.690677-23.854061-6.051789-34.216743-17.131837-52.830241-68.429018-65.941705-105.515221-71.209086-12.33823-1.756538-23.349-2.61246-33.660283-2.61246-44.7448 0-75.604902 17.350846-94.343547 53.04031-16.141829 30.743893-23.042835 73.093007-31.02771 129.54136-11.902448 83.549551-6.838432 130.82189 17.484932 163.165886 17.996698 23.934513 45.535913 37.774516 86.671542 43.560366 10.358213 1.457078 19.748766 2.165504 28.71471 2.165504 32.857996 0 57.19477-9.877735 75.564676-27.731407 20.059401 36.554325 24.370295 91.154513-3.043773 157.594575l-91.389165 45.795148a22.345583 22.345583 0 0 0-9.969361 29.990771 22.343348 22.343348 0 0 0 29.990771 9.967127l97.099033-48.655669a22.231609 22.231609 0 0 0 3.349938-1.678321l94.012799-47.109199L433.570334 889.219664l111.888819-56.06397z m218.342647-366.942227L513.1822 704.378629a843.84689 843.84689 0 0 1-69.443609-189.299424 350.042807 350.042807 0 0 0 28.752702-26.689998c8.574858-8.876553 8.331266-23.024957-0.547521-31.599815-8.874318-8.574858-23.024957-8.331266-31.599814 0.547522a353.388275 353.388275 0 0 1-6.934528 6.981458 844.622359 844.622359 0 0 1 26.108955-395.156346l304.283415 397.051441zM168.183295 761.314164c-6.764684 0-14.331655-0.581043-22.488609-1.727486-16.074785-2.261599-28.853267-5.877476-38.80922-11.064405 32.538422-24.846304 71.542069-27.881137 103.883831-6.69764 1.282765 0.840278 2.547651 1.727486 3.799129 2.641512-12.577352 13.082412-27.791746 16.84802-46.385131 16.848019z m-89.221427-47.66566c-7.012745-23.460739-6.719989-58.846273 0.603391-110.248489 16.293794-115.182887 27.539216-144.168006 81.118109-144.168006 8.063093 0 17.270393 0.728539 27.364902 2.167738 51.663685 7.336789 63.834306 23.918869 69.291644 40.746776 1.322991 4.076242 2.283947 8.579327 2.994607 13.410926-22.06847-6.09425-45.493452-16.088194-70.773303-29.984067-10.816344-5.951224-24.401582-2.00013-30.348337 8.816214-5.946754 10.816344-2.00013 24.403817 8.816214 30.348336 32.866935 18.068211 63.608593 30.299171 92.707687 36.851551-1.499539 19.257114-4.474033 41.435089-8.031806 66.424419-4.66399 32.954092-10.107918 58.023874-16.561967 77.017284-0.294991-0.196661-0.587748-0.402261-0.884974-0.596687-48.749529-31.928327-108.693081-27.557094-156.296167 9.214005z m191.864954 24.374765c4.981329-11.0063 9.21177-23.172452 12.854464-36.375543a87.987828 87.987828 0 0 1 20.218071-2.306295h0.236887c50.99325 0.129617 109.410446 43.56707 129.684386 139.763252l-136.786523 68.540756c17.71288-71.457147 3.37899-130.294481-26.207285-169.62217z"  /><path d="M210.796114 408.017515c71.553243 0 129.764838-58.222769 129.764838-129.787185 0-71.542069-58.21383-129.744725-129.764838-129.744725-71.559947 0-129.773777 58.202656-129.773777 129.744725-0.002235 71.564416 58.21383 129.787186 129.773777 129.787185z m0-214.836275c46.908069 0 85.069203 38.152194 85.069203 85.04909 0 46.919243-38.161133 85.09155-85.069203 85.09155-46.912539 0-85.078142-38.172307-85.078142-85.09155-0.002235-46.894661 38.163368-85.04909 85.078142-85.04909z"  /></svg>