<?xml version="1.0" standalone="no"?><!DOCTYPE svg PUBLIC "-//W3C//DTD SVG 1.1//EN" "http://www.w3.org/Graphics/SVG/1.1/DTD/svg11.dtd"><svg class="icon" width="200px" height="200.00px" viewBox="0 0 1024 1024" version="1.1" xmlns="http://www.w3.org/2000/svg"><path d="M511.996742 316.953467c-77.720191 0-85.05044 26.753781-85.05044 151.452726 0 79.260086 10.644608 115.214145 34.640044 130.656536a21.706226 21.706226 0 0 1 7.949248 4.196161c11.550301 4.912896 25.630896 6.461479 42.461148 6.461479 16.958396 0 31.123696-1.572474 42.723951-6.574419a21.740977 21.740977 0 0 1 7.580021-4.011547c24.073625-15.401125 34.750812-51.346496 34.750812-130.726039 0.002172-124.701116-7.328077-151.454898-85.054784-151.454897z" fill="#FFD5A1" /><path d="M511.996742 223.002475c45.588721 0 82.676525-37.098664 82.676525-82.698244 0-45.57569-37.087804-82.656978-82.676525-82.656978-45.593065 0-82.685213 37.079116-82.685213 82.656978 0 45.599581 37.092148 82.698244 82.685213 82.698244z" fill="#7A4D33" /><path d="M862.482571 191.131637V21.719257c0-11.995546-9.725883-21.719257-21.719258-21.719257s-21.719257 9.723712-21.719257 21.719257v169.41238c-48.334035 10.056016-84.763746 52.975441-84.763746 104.250263 0 11.037727 1.689758 21.686679 4.821675 31.705772l-120.116181-7.267263c-17.516581-28.960458-49.296198-46.307629-106.98689-46.307629-57.68852 0-89.465965 17.344999-106.982546 46.307629l-120.114009 7.267263A106.109432 106.109432 0 0 0 289.724034 295.3819c0-51.274823-36.42971-94.194247-84.763746-104.250263V21.719257c0-11.995546-9.725883-21.719257-21.719257-21.719257s-21.719257 9.723712-21.719258 21.719257v169.41238C113.185566 201.187653 76.755856 244.107078 76.755856 295.3819c0 30.923879 13.259607 58.800546 34.381584 78.27186 0.725423 0.736283 1.492113 1.426955 2.315273 2.05247 18.704624 16.272068 43.104038 26.158674 69.783974 26.158674 28.491322 0 54.38502-11.270123 73.51317-29.557738l132.44186-8.012234c-5.677414 29.985607-5.686102 65.613877-5.686102 104.109089 0 78.604164 10.212395 136.609785 51.578893 165.077215l28.456571 301.08755-21.971201 60.240532c-4.111455 11.267951 1.69193 23.736976 12.962053 27.84626a21.704054 21.704054 0 0 0 7.441017 1.320531c8.865801 0 17.192964-5.468909 20.405243-14.282584l23.652271-64.847187a21.68885 21.68885 0 0 0 1.21845-9.484799l-26.901472-284.63304c9.612943 1.602881 20.13158 2.426041 31.644958 2.426041 11.556817 0 22.110204-0.829676 31.751383-2.443417l-27.001381 284.641728a21.68885 21.68885 0 0 0 1.227138 9.521722l23.754352 64.847187c3.220966 8.798471 11.539441 14.254349 20.396554 14.254349a21.647584 21.647584 0 0 0 7.467081-1.331391c11.263607-4.124487 17.049617-16.6022 12.922958-27.863635l-22.06025-60.225329 28.569512-301.150535c41.275277-28.495666 51.468124-86.466536 51.468124-165.001198 0-38.495212-0.008688-74.123482-5.686102-104.109089l132.444032 8.012234c19.12815 18.287615 45.021849 29.557737 73.51317 29.557738 26.682108 0 51.081521-9.886606 69.786146-26.158674a21.649756 21.649756 0 0 0 2.315273-2.054642c21.119806-19.471314 34.381584-47.347981 34.381584-78.271859 0.002172-51.272651-36.427538-94.192075-84.759401-104.248092z m-626.628811 138.925058l-100.653555 6.09008c-9.35014-11.000804-15.008007-25.231261-15.008007-40.764875 0-27.442282 17.631693-50.833922 42.154907-59.473842 2.57156 9.126432 10.93999 15.824651 20.88741 15.824651 9.94742 0 18.31585-6.698219 20.88741-15.824651 24.525385 8.639921 42.157079 32.029389 42.157078 59.473842a62.625307 62.625307 0 0 1-10.425243 34.674795z m326.449126 269.073364a21.721429 21.721429 0 0 0-7.580021 4.011547c-11.600255 5.001945-25.765555 6.574419-42.723951 6.574419-16.830253 0-30.910847-1.548583-42.461148-6.461479a21.673647 21.673647 0 0 0-7.949248-4.196161c-23.995436-15.44022-34.640044-51.394279-34.640044-130.656536 0-124.696772 7.330249-151.452726 85.05044-151.452726 77.724534 0 85.054784 26.753781 85.054784 151.452726 0 79.381714-10.677187 115.327085-34.750812 130.72821z m326.494737-262.983284l-100.653555-6.09008A62.660058 62.660058 0 0 1 777.716653 295.3819c0-27.444454 17.631693-50.833922 42.157078-59.473842 2.57156 9.126432 10.93999 15.824651 20.88741 15.824651 9.949592 0 18.31585-6.698219 20.88741-15.824651 24.525385 8.639921 42.154907 32.029389 42.154907 59.473842 0.002172 15.533613-5.655695 29.76407-15.005835 40.764875z"  /><path d="M511.996742 266.44099c69.540718 0 126.11504-56.585181 126.11504-126.136759 0-69.529859-56.576494-126.095493-126.11504-126.095493-69.545062 0-126.123728 56.565634-126.123728 126.095493 0 69.551578 56.578665 126.136759 126.123728 126.136759z m0-208.793737c45.588721 0 82.676525 37.079116 82.676525 82.656978 0 45.599581-37.087804 82.698244-82.676525 82.698244-45.593065 0-82.685213-37.098664-82.685213-82.698244 0-45.577862 37.092148-82.656978 82.685213-82.656978z"  /></svg>