<?xml version="1.0" standalone="no"?><!DOCTYPE svg PUBLIC "-//W3C//DTD SVG 1.1//EN" "http://www.w3.org/Graphics/SVG/1.1/DTD/svg11.dtd"><svg class="icon" width="200px" height="200.00px" viewBox="0 0 1024 1024" version="1.1" xmlns="http://www.w3.org/2000/svg"><path d="M900.534792 861.613371c12.85183 0 23.307636-10.455805 23.307636-23.307636v-216.336813c-39.80478 24.14438-88.694877 37.21064-141.057812 37.21064-36.539381 0-71.391288-6.358323-102.649159-18.399048v197.527552c0 12.85183 10.455805 23.307636 23.307636 23.307636h197.091699z m-156.967604-126.67467c-9.101632-9.101632-9.101632-23.860027 0-32.963989 9.101632-9.099301 23.860027-9.099301 32.963989 0l25.4566 25.4566 25.4566-25.4566c9.101632-9.099301 23.860027-9.099301 32.963989 0 9.101632 9.101632 9.101632 23.860027 0 32.963989l-25.4566 25.4566 25.4566 25.4566c9.101632 9.101632 9.101632 23.860027 0 32.963989a23.242374 23.242374 0 0 1-16.480829 6.826807 23.237713 23.237713 0 0 1-16.480829-6.826807l-25.4566-25.4566-25.4566 25.4566a23.242374 23.242374 0 0 1-16.480829 6.826807 23.237713 23.237713 0 0 1-16.480829-6.826807c-9.101632-9.101632-9.101632-23.860027 0-32.963989l25.456599-25.4566-25.461261-25.4566zM830.93353 162.384298c-70.293499 0-129.802554 50.659146-143.43286 117.372592h61.04736c41.858183 0 77.157597 28.563508 87.468895 67.219222h71.447227c12.872807 0 23.307636 10.437159 23.307636 23.307636 0 12.872807-10.434829 23.307636-23.307636 23.307635h-71.447227c-10.311298 38.655714-45.610712 67.216891-87.468895 67.216891h-61.29209v35.124607c0 12.870476-10.434829 23.307636-23.307636 23.307636s-23.307636-10.437159-23.307635-23.307636v-58.432243c0-12.870476 10.434829-23.307636 23.307635-23.307635h84.599726c24.211972 0 43.909255-19.697283 43.909255-43.909255 0-24.214303-19.697283-43.911586-43.909255-43.911586h-61.224498c-6.961991 0-13.900674 0.743514-20.641242 2.186256-0.149169 0.034961-0.293676 0.083907-0.442845 0.116538-45.228467 9.910407-78.054941 50.635839-78.054941 96.833904v16.457521c0 100.444256 80.022106 170.595578 194.600112 170.595579s194.600112-70.153653 194.600112-170.595579v-133.130884c0-80.751635-65.697233-146.451198-146.451198-146.451199z" fill="#E85512" /><path d="M743.567188 818.81589a23.242374 23.242374 0 0 0 16.480829 6.826807 23.237713 23.237713 0 0 0 16.48083-6.826807l25.456599-25.4566 25.4566 25.4566a23.242374 23.242374 0 0 0 16.480829 6.826807 23.237713 23.237713 0 0 0 16.48083-6.826807c9.101632-9.101632 9.101632-23.860027 0-32.963989l-25.4566-25.4566 25.4566-25.4566c9.101632-9.101632 9.101632-23.860027 0-32.963989-9.101632-9.099301-23.860027-9.099301-32.96399 0L801.983116 727.431312l-25.4566-25.4566c-9.101632-9.099301-23.860027-9.099301-32.963989 0-9.101632 9.101632-9.101632 23.860027 0 32.963989l25.456599 25.4566-25.456599 25.4566c-9.09697 9.103963-9.09697 23.862357 0.004661 32.963989z" fill="#FFFFFF" /><path d="M357.760555 328.674956c-0.139846-0.0303-0.272699-0.076915-0.412545-0.109546a98.749791 98.749791 0 0 0-20.671542-2.190917h-61.224498c-24.211972 0-43.909255 19.697283-43.909255 43.911585 0 24.211972 19.697283 43.909255 43.909255 43.909255h84.599726c12.872807 0 23.307636 10.437159 23.307635 23.307636v58.432243c0 12.870476-10.434829 23.307636-23.307635 23.307636s-23.307636-10.437159-23.307636-23.307636v-35.124607h-61.29209c-41.858183 0-77.157597-28.561177-87.468895-67.216891H116.538179c-12.872807 0-23.307636-10.434829-23.307636-23.307636 0-12.870476 10.434829-23.307636 23.307636-23.307635h71.447226c10.311298-38.653383 45.610712-67.219222 87.468896-67.219222h61.047359c-13.630305-66.713446-73.139361-117.372592-143.432859-117.372592C112.312504 162.384298 46.615272 228.083862 46.615272 308.835497v133.130884c0 100.444256 80.022106 170.595578 194.600112 170.595579 114.578007-0.002331 194.600112-70.155984 194.600112-170.595579v-16.457521c0-46.198065-32.826474-86.923497-78.054941-96.833904zM100.157572 621.968922v216.336813c0 12.85183 10.455805 23.307636 23.307636 23.307636h197.091699c12.85183 0 23.307636-10.455805 23.307636-23.307636v-197.527551c-31.25787 12.038394-66.109778 18.399048-102.649159 18.401378-52.362934 0-101.2507-13.066261-141.057812-37.21064z m180.27524 80.00579c9.101632 9.101632 9.101632 23.860027 0 32.963989l-25.4566 25.4566 25.4566 25.4566c9.101632 9.101632 9.101632 23.860027 0 32.963989-4.551981 4.54965-10.516405 6.826807-16.480829 6.826807s-11.931179-2.277156-16.48083-6.826807l-25.456599-25.4566-25.4566 25.4566a23.242374 23.242374 0 0 1-16.480829 6.826807 23.237713 23.237713 0 0 1-16.48083-6.826807c-9.101632-9.101632-9.101632-23.860027 0-32.963989l25.4566-25.4566-25.4566-25.4566c-9.101632-9.101632-9.101632-23.860027 0-32.963989 9.101632-9.099301 23.860027-9.099301 32.96399 0L222.016884 727.431312l25.4566-25.4566c9.099301-9.099301 23.857696-9.099301 32.959328 0z" fill="#E85512" /><path d="M196.555623 701.974712c-9.101632-9.099301-23.860027-9.099301-32.963989 0-9.101632 9.101632-9.101632 23.860027 0 32.963989l25.4566 25.4566-25.4566 25.4566c-9.101632 9.101632-9.101632 23.860027 0 32.963989a23.242374 23.242374 0 0 0 16.480829 6.826807 23.237713 23.237713 0 0 0 16.480829-6.826807l25.4566-25.4566 25.4566 25.4566c4.551981 4.54965 10.516405 6.826807 16.480829 6.826807s11.931179-2.277156 16.480829-6.826807c9.101632-9.101632 9.101632-23.860027 0-32.963989l-25.456599-25.4566 25.456599-25.4566c9.101632-9.101632 9.101632-23.860027 0-32.963989-9.101632-9.099301-23.860027-9.099301-32.963989 0L222.007561 727.431312l-25.451938-25.4566z" fill="#FFFFFF" /><path d="M830.93353 115.769027c-50.987784 0-99.071437 19.697283-135.396387 55.465181-32.094614 31.602823-51.803551 72.570655-56.518686 116.829524-57.397384 20.331251-97.451556 75.544709-97.451556 137.447459v16.457521c0 63.690445 25.589453 120.465515 72.057887 159.860082 6.2884 5.330456 12.954384 10.274006 19.893067 14.902902v221.57637c0 38.555491 31.367416 69.922907 69.922907 69.922907h197.091699c38.555491 0 69.922907-31.367416 69.922907-69.922907v-254.309614c34.693416-37.853931 53.542301-87.39198 53.542301-142.032071v-133.130884c0.002331-106.455296-86.606513-193.06647-193.064139-193.06647z m146.451198 326.197354c0 100.444256-80.022106 170.595578-194.600112 170.595579s-194.600112-70.153653-194.600112-170.595579v-16.457521c0-46.198065 32.826474-86.923497 78.054941-96.833904 0.1515-0.032631 0.293676-0.081577 0.442845-0.116538a98.770768 98.770768 0 0 1 20.641242-2.186256h61.224498c24.211972 0 43.909255 19.697283 43.909255 43.911586 0 24.211972-19.697283 43.909255-43.909255 43.909255h-84.599726c-12.872807 0-23.307636 10.437159-23.307635 23.307635v58.432243c0 12.870476 10.434829 23.307636 23.307635 23.307636s23.307636-10.437159 23.307636-23.307636v-35.124607h61.29209c41.858183 0 77.157597-28.561177 87.468895-67.216891h71.447227c12.872807 0 23.307636-10.434829 23.307636-23.307635 0-12.870476-10.434829-23.307636-23.307636-23.307636h-71.447227c-10.311298-38.653383-45.610712-67.219222-87.468895-67.219222h-61.04736c13.630305-66.713446 73.139361-117.372592 143.43286-117.372592 80.753966 0 146.451198 65.699564 146.451198 146.451199v133.130884zM680.135457 838.305735v-197.527551c31.25787 12.040725 66.109778 18.399048 102.649159 18.399047 52.362934 0 101.253031-13.06393 141.057812-37.21064v216.336813c0 12.85183-10.455805 23.307636-23.307636 23.307636h-197.091699c-12.854161 0.002331-23.307636-10.453475-23.307636-23.305305zM384.981543 288.061401c-4.715135-44.25887-24.424072-85.22437-56.518686-116.827193C292.137907 135.468641 244.051923 115.769027 193.06647 115.769027 86.608844 115.769027 0 202.380201 0 308.835497v133.130884c0 54.64009 18.848885 104.17814 53.542301 142.032071V838.305735c0 38.555491 31.367416 69.922907 69.922907 69.922907h197.091699c38.555491 0 69.922907-31.367416 69.922907-69.922907v-221.57637c6.938683-4.628896 13.604667-9.572446 19.893067-14.902902 46.468433-39.396897 72.060217-96.169636 72.060218-159.860082v-16.457521c-0.002331-61.90275-40.056503-117.116208-97.451556-137.447459z m50.833953 153.90498c0 100.441926-80.024437 170.593248-194.600112 170.595579C126.637377 612.564291 46.615272 542.410638 46.615272 441.966381v-133.130884C46.615272 228.083862 112.312504 162.384298 193.06647 162.384298c70.295829 0 129.802554 50.659146 143.43286 117.372592h-61.04736c-41.858183 0-77.157597 28.563508-87.468895 67.219222H116.538179c-12.872807 0-23.307636 10.437159-23.307636 23.307636 0 12.872807 10.434829 23.307636 23.307636 23.307635h71.447226c10.311298 38.655714 45.610712 67.216891 87.468896 67.216891h61.29209v35.124607c0 12.870476 10.434829 23.307636 23.307635 23.307636s23.307636-10.437159 23.307636-23.307636v-58.432243c0-12.870476-10.434829-23.307636-23.307636-23.307635h-84.599725c-24.211972 0-43.909255-19.697283-43.909255-43.909255 0-24.214303 19.697283-43.911586 43.909255-43.911586h61.224497c6.971314 0 13.921651 0.743514 20.671543 2.190918 0.139846 0.032631 0.272699 0.079246 0.412545 0.109546 45.228467 9.910407 78.054941 50.635839 78.054941 96.836234v16.457521zM343.864543 838.305735c0 12.85183-10.455805 23.307636-23.307636 23.307636H123.465208c-12.85183 0-23.307636-10.455805-23.307636-23.307636v-216.336813c39.80478 24.14438 88.694877 37.21064 141.057812 37.21064 36.539381 0 71.391288-6.360654 102.649159-18.401378v197.527551z"  /></svg>