<?xml version="1.0" standalone="no"?><!DOCTYPE svg PUBLIC "-//W3C//DTD SVG 1.1//EN" "http://www.w3.org/Graphics/SVG/1.1/DTD/svg11.dtd"><svg class="icon" width="200px" height="200.00px" viewBox="0 0 1024 1024" version="1.1" xmlns="http://www.w3.org/2000/svg"><path d="M330.853469 445.9789l-21.845618 40.262868c35.043018 25.890093 59.519022 65.261767 65.750559 110.392099h45.841924c-6.713509-62.338105-40.697098-116.61909-89.746865-150.654967z"  /><path d="M210.912863 784.814465C119.688253 784.814465 45.469077 710.597563 45.469077 619.368406c0-91.226884 74.219175-165.443785 165.443786-165.443785 20.461085 0 40.05371 3.760293 58.157223 10.580654l21.850166-40.271962a209.773862 209.773862 0 0 0-80.007389-15.77777C94.61433 408.455543 0 503.069873 0 619.368406c0 116.298533 94.61433 210.915136 210.912863 210.915136 108.618806 0 198.311108-82.533196 209.685197-188.180597h-45.83965c-11.117189 80.503002-80.332493 142.71152-163.845547 142.71152zM813.084864 408.455543a209.73294 209.73294 0 0 0-80.007389 15.77777l21.850165 40.271962a164.613975 164.613975 0 0 1 58.157224-10.580654c91.226884 0 165.443785 74.216902 165.443785 165.443785s-74.216902 165.446059-165.443785 165.446059-165.443785-74.219175-165.443786-165.446059c0-54.531065 26.531207-102.969273 67.351071-133.126638l-21.845618-40.262868c-54.928919 38.112181-90.97453 101.616568-90.97453 173.389506 0 116.298533 94.61433 210.915136 210.912863 210.915136 116.298533 0 210.912863-94.61433 210.912863-210.915136 0.002273-116.298533-94.612056-210.912863-210.912863-210.912863z"  /><path d="M793.101204 630.210508a22.729992 22.729992 0 0 0 30.825761 9.141558c11.035345-5.988278 15.129836-19.788143 9.141558-30.825761l-78.140883-144.023303-21.850165-40.271962-44.671095-82.333132 55.726901-102.714646h-13.531597c-12.556286 0-22.734539-10.180526-22.734539-22.734539 0-3.898973 0.984406-7.566054 2.712231-10.771624l-61.571952 113.48627h-274.019395l-16.168804-29.79816h-51.732443l28.502291 52.532699-44.671095 82.333132-21.850165 40.271962-78.140883 144.023303a22.741359 22.741359 0 0 0 0.445597 22.468544 22.741359 22.741359 0 0 0 19.538062 11.108096h301.084864c8.336755 0 16.007389-4.565095 19.98366-11.892437l130.559909-240.640546 30.605236 56.408938 21.845618 40.262868 78.111328 143.96874z m-294.630528-33.576641H249.113708l59.891869-110.392099 21.845618-40.262868 44.13456-81.346454h249.356968l-125.872047 232.001421z" fill="#E85512" /><path d="M730.603957 239.185535h57.39107c22.743633 0 41.247274 18.503641 41.247273 41.247274 0 12.554012 10.180526 22.734539 22.734539 22.734539s22.734539-10.180526 22.734539-22.734539c0-47.815282-38.898796-86.716351-86.716351-86.716351h-57.39107a22.727718 22.727718 0 0 0-22.734539 22.734538c0 12.554012 10.180526 22.734539 22.734539 22.734539zM399.036624 289.365209c12.556286 0 22.734539-10.180526 22.734539-22.734539s-10.178253-22.734539-22.734539-22.734538h-131.744379c-12.554012 0-22.734539 10.180526-22.734538 22.734538s10.180526 22.734539 22.734538 22.734539h131.744379z"  /></svg>