<?xml version="1.0" standalone="no"?><!DOCTYPE svg PUBLIC "-//W3C//DTD SVG 1.1//EN" "http://www.w3.org/Graphics/SVG/1.1/DTD/svg11.dtd"><svg t="1749102172391" class="icon" viewBox="0 0 1024 1024" version="1.1" xmlns="http://www.w3.org/2000/svg" p-id="16349" xmlns:xlink="http://www.w3.org/1999/xlink" width="200" height="200"><path d="M398.71 799.52c-7.02 0-12.51-2.29-16.32-4.69-17.55-11.01-21.28-37.67-21.65-40.67-0.06-0.49-0.09-0.98-0.09-1.47l-1.37-424.17c-0.01-2.95 1.04-5.82 2.95-8.07l74.1-87.18h-9.96c-6.84 0-12.39-5.55-12.39-12.39s5.55-12.39 12.39-12.39h36.76c4.83 0 9.22 2.81 11.25 7.19 2.03 4.39 1.32 9.55-1.81 13.23l-88.5 104.11 1.36 418.77c1.06 7.21 4.88 18.78 10.15 22.06 0.78 0.48 2.63 1.61 7.07 0.12 6.48-2.23 13.52 1.26 15.72 7.75 2.2 6.48-1.27 13.52-7.75 15.72-4.34 1.48-8.33 2.08-11.91 2.08z" fill="#480662" p-id="16350"></path><path d="M718.05 847.46H469.91c-3.74 0-6.77-3.03-6.77-6.77V285.12c0-1.75 1.42-3.18 3.18-3.18h255.32c1.75 0 3.18 1.42 3.18 3.18V840.7c0 3.73-3.03 6.76-6.77 6.76z" fill="#FF8681" p-id="16351"></path><path d="M698.57 281.94c14.5 0 26.25 11.75 26.25 26.25v483.36c0 30.89-25.04 55.92-55.92 55.92H519.06c-30.89 0-55.92-25.04-55.92-55.92V308.19c0-14.5 11.75-26.25 26.25-26.25h209.18m0-29.37H489.39c-30.66 0-55.61 24.95-55.61 55.61v483.36c0 47.03 38.26 85.29 85.29 85.29H668.9c47.03 0 85.29-38.26 85.29-85.29V308.19c-0.01-30.67-24.96-55.62-55.62-55.62z" fill="#480662" p-id="16352"></path><path d="M698.57 281.94H594.73v565.53h74.17c30.88 0 55.92-25.04 55.92-55.92V308.19c0-14.5-11.76-26.25-26.25-26.25z" fill="#E66863" p-id="16353"></path><path d="M504.36 183.53h174.9v74.68h-174.9z" fill="#7CCCF6" p-id="16354"></path><path d="M679.27 183.53v74.68h-174.9v-74.68h174.9m0-24.79h-174.9c-13.69 0-24.79 11.1-24.79 24.79v74.68c0 13.69 11.1 24.79 24.79 24.79h174.9c13.69 0 24.79-11.1 24.79-24.79v-74.68c0-13.69-11.1-24.79-24.79-24.79z" fill="#480662" p-id="16355"></path><path d="M458.66 116.36h259.82v52.33H458.66z" fill="#FF8681" p-id="16356"></path><path d="M718.48 116.36v52.33H458.66v-52.33h259.82m0-29.36H458.66c-16.22 0-29.36 13.15-29.36 29.36v52.33c0 16.22 13.15 29.36 29.36 29.36h259.82c16.22 0 29.36-13.15 29.36-29.36v-52.33C747.85 100.14 734.7 87 718.48 87z" fill="#480662" p-id="16357"></path><path d="M594.73 116.36h123.75v52.33H594.73z" fill="#E66863" p-id="16358"></path><path d="M463.14 456.13H714v203.28H463.14z" fill="#7CCCF6" p-id="16359"></path><path d="M714 456.13v203.28H463.14V456.13H714m0-24.79H463.14c-13.69 0-24.79 11.1-24.79 24.79v203.28c0 13.69 11.1 24.79 24.79 24.79H714c13.69 0 24.79-11.1 24.79-24.79V456.13c0-13.69-11.1-24.79-24.79-24.79z" fill="#480662" p-id="16360"></path><path d="M593.98 456.13H714v203.28H593.98zM595.6 197.32h83.67v60.89H595.6z" fill="#47A1DF" p-id="16361"></path><path d="M528.02 501.93h127.59V607.9H528.02z" fill="#FFF112" p-id="16362"></path><path d="M655.61 501.93V607.9H528.02V501.93h127.59m0-15.06H528.02c-8.32 0-15.06 6.74-15.06 15.06V607.9c0 8.32 6.74 15.06 15.06 15.06h127.59c8.32 0 15.06-6.74 15.06-15.06V501.93c0-8.32-6.74-15.06-15.06-15.06z" fill="#480662" p-id="16363"></path><path d="M284.58 164.27l122.07 38.07v36.63l-122.07 34.18z" fill="#FFF112" p-id="16364"></path><path d="M284.58 164.27l122.07 38.06v36.64l-122.07 34.18V164.27m0-16.52c-3.48 0-6.92 1.1-9.79 3.21a16.53 16.53 0 0 0-6.73 13.31v108.88c0 5.17 2.42 10.04 6.54 13.17a16.56 16.56 0 0 0 9.99 3.36c1.49 0 2.99-0.2 4.45-0.61l122.07-34.18c7.14-2 12.07-8.5 12.07-15.91v-36.64c0-7.23-4.7-13.62-11.61-15.78L289.5 148.5c-1.61-0.51-3.27-0.75-4.92-0.75z" fill="#480662" p-id="16365"></path><path d="M578.36 548.68l-50.34-46.75" fill="#F2EFE7" p-id="16366"></path><path d="M578.36 556.94c-2.02 0-4.03-0.73-5.62-2.21l-50.35-46.75c-3.34-3.1-3.53-8.33-0.43-11.68 3.1-3.35 8.34-3.53 11.68-0.43l50.35 46.75c3.34 3.1 3.53 8.33 0.43 11.68a8.258 8.258 0 0 1-6.06 2.64z" fill="#480662" p-id="16367"></path><path d="M578.36 597.09l-25.17-21.63" fill="#F2EFE7" p-id="16368"></path><path d="M578.36 605.35c-1.91 0-3.82-0.65-5.38-1.99l-25.17-21.63c-3.46-2.98-3.86-8.19-0.89-11.65 2.99-3.47 8.21-3.85 11.65-0.89l25.17 21.63c3.46 2.98 3.86 8.19 0.89 11.65a8.268 8.268 0 0 1-6.27 2.88z" fill="#480662" p-id="16369"></path><path d="M593.98 501.93h61.63V607.9h-61.63z" fill="#FFD60D" p-id="16370"></path><path d="M555.87 156.76h-18.48c-0.7 0-1.27-0.57-1.27-1.27v-28.15c0-0.7 0.57-1.27 1.27-1.27h18.48c0.7 0 1.27 0.57 1.27 1.27v28.15c0 0.7-0.57 1.27-1.27 1.27zM603.97 157.71h-18.48c-0.7 0-1.27-0.57-1.27-1.27v-28.15c0-0.7 0.57-1.27 1.27-1.27h18.48c0.7 0 1.27 0.57 1.27 1.27v28.15c0 0.7-0.57 1.27-1.27 1.27zM651.13 156.76h-18.48c-0.7 0-1.27-0.57-1.27-1.27v-28.15c0-0.7 0.57-1.27 1.27-1.27h18.48c0.7 0 1.27 0.57 1.27 1.27v28.15c0.01 0.7-0.57 1.27-1.27 1.27z" fill="#480662" p-id="16371"></path></svg>