<?xml version="1.0" standalone="no"?><!DOCTYPE svg PUBLIC "-//W3C//DTD SVG 1.1//EN" "http://www.w3.org/Graphics/SVG/1.1/DTD/svg11.dtd"><svg t="1749102135207" class="icon" viewBox="0 0 1024 1024" version="1.1" xmlns="http://www.w3.org/2000/svg" p-id="12199" xmlns:xlink="http://www.w3.org/1999/xlink" width="200" height="200"><path d="M440.786 530.264l4.98 29.54-138.668 80.056-4.98-29.538 138.668-80.058z" fill="#BBCFEF" p-id="12200"></path><path d="M468.06 556.926c-6.078-2.03-16.048-0.736-22.294 2.886l-4.972-29.556c4.832-2.774 11.898-4.19 17.66-3.724l7.54 18.19 2.068 12.204z m3.474 1.154l-3.472-1.154-2.068-12.204 5.54 13.358z" fill="#EBF2FF" p-id="12201"></path><path d="M443.318 853.4l178.808-103.906c12.578 30.3 34.072 55.276 56.116 68.068 12.176 6.962 24.418 10.24 35.468 8.62l-178.81 103.908c-11.05 1.62-23.28-1.658-35.458-8.62-22.054-12.792-43.54-37.768-56.124-68.068z" fill="#F04343" p-id="12202"></path><path d="M240.444 364.62l178.8-103.91 202.882 488.784-178.808 103.908L240.444 364.62z" fill="#FF6161" p-id="12203"></path><path d="M642.234 742.41l-178.8 103.908c3.26-1.89 3.948-7.466 1.396-13.63l178.81-103.908c2.54 6.164 1.852 11.74-1.396 13.63h-0.01z" fill="#FF6161" p-id="12204"></path><path d="M534.9 930.09l178.8-103.908 23.356-3.472-178.8 103.908-23.356 3.472z" fill="#F04343" p-id="12205"></path><path d="M224.61 353.522l178.8-103.908c0.55-0.316 1.158-0.524 1.786-0.614 1.696-0.26 3.576 0.232 5.428 1.302 3.38 1.956 6.674 5.8 8.62 10.408l-178.8 103.908c-1.954-4.608-5.25-8.452-8.62-10.408-2.234-1.284-5-1.982-7.214-0.688z" fill="#FF6161" p-id="12206"></path><path d="M749.828 818.27c-191.432 110.246-179.526 106.588-191.58 108.348l178.808-103.908a35.442 35.442 0 0 0 12.772-4.44z" fill="#F04343" p-id="12207"></path><path d="M233.164 274.544l178.8-103.908L643.63 728.78l-178.79 103.916-231.676-558.154z" fill="#FF6161" p-id="12208"></path><path d="M764.192 843.06l-178.8 103.908c20.668-12.008 28.86-37.936 28.924-61.952 0.046-16.692-3.566-35.674-11.73-55.24l178.82-103.908c8.162 19.566 11.764 38.548 11.728 55.24-0.074 23.988-8.256 49.942-28.932 61.952h-0.01z" fill="#F04343" p-id="12209"></path><path d="M240.296 204.66l178.808-103.908c-9.802 5.688-15.052 17.92-15.1 33.42-0.026 10.92 2.506 23.384 7.96 36.464l-178.8 103.908c-5.464-13.08-7.986-25.544-7.96-36.464 0.048-15.5 5.3-27.732 15.092-33.42z" fill="#FF6161" p-id="12210"></path><path d="M225.932 179.908L404.72 76c3.8-2.216 8.1-3.724 12.846-4.414L238.78 175.494a35.72 35.72 0 0 0-12.846 4.414z m12.846-4.414l178.81-103.908 25.646-3.77-178.8 103.908-25.656 3.77z" fill="#F04343" p-id="12211"></path><path d="M264.434 171.724l178.8-103.908c11.99-1.796 25.386 1.78 38.548 9.384l-178.8 103.908c-13.172-7.606-26.558-11.18-38.54-9.384h-0.008z" fill="#FF6161" p-id="12212"></path><path d="M364.05 255.162l178.81-103.918 238.536 574.622-178.8 103.908-238.546-574.612z" fill="#F04343" p-id="12213"></path><path d="M346.828 257.656c-12.008-28.996-42.896-64.176-71.586-59.968l-25.702 3.798c-15.704 2.3-24.28 16.774-24.334 36.584-0.028 10.93 2.494 23.394 7.96 36.474L464.84 832.69c4.282 10.398-0.828 17.464-8.658 12.938-3.37-1.936-6.656-5.77-8.564-10.37L215.924 277.104c-7.54-18.126-11.096-35.57-11.05-50.762 0.074-27.5 12.066-47.636 33.894-50.848l25.656-3.77c11.99-1.796 25.378 1.78 38.54 9.384 24.092 13.9 47.44 41.146 61.078 74.044l238.544 574.624c24.27 58.19 9.086 116.558-33.53 122.87l-23.348 3.472c-14.318 2.086-30.32-2.104-46.062-11.19-29.118-16.812-57.158-49.542-73.56-89.022L223.204 367.178c-4.3-10.286 0.716-17.52 8.61-12.968 3.37 1.956 6.676 5.8 8.62 10.408l202.874 488.784c12.586 30.3 34.072 55.278 56.124 68.068 12.176 6.964 24.41 10.24 35.458 8.62l23.358-3.472c24.222-3.528 35.662-28.672 35.738-53.342 0.036-12.846-2.7-26.754-8.63-40.932" fill="#E22525" p-id="12214"></path><path d="M302.982 181.108l178.8-103.908c24.082 13.9 47.43 41.146 61.068 74.044l-178.79 103.918c-13.638-32.9-36.986-60.136-61.068-74.044l-0.01-0.01z" fill="#FF6161" p-id="12215"></path><path d="M682.942 788.75l-38.316 4.376c-26.1 2.96-48.258-4.45-57.5-27.452l-193.408-482.148c-16.16-40.15 23.274-87.7 70.842-115.152 20.314-11.712 42.04-19.754 61.654-22.008l38.242-4.374c-19.548 2.26-41.34 10.304-61.662 22.016-47.478 27.442-86.93 74.994-70.768 115.208l193.414 482.092c9.244 22.992 31.326 30.4 57.502 27.44z" fill="#3D4449" p-id="12216"></path><path d="M502.812 164.026c47.504-27.424 103.07-34.74 119.202 5.456l193.444 482.134c32.228 80.356-157.77 190.056-190.008 109.708L432.006 279.18c-16.132-40.216 23.31-87.74 70.806-115.154z" fill="#4F575F" p-id="12217"></path><path d="M635.27 757.386l-193.442-482.144c-13.638-33.996 23.012-77.08 66.28-102.046 23.358-13.49 47.766-21.226 66.97-21.226 18.908 0 31.4 7.216 37.106 21.46l193.442 482.134c27.314 68.08-143.964 167.656-170.356 101.814v0.008z" fill="#EBF2FF" p-id="12218"></path><path d="M695.314 615.796c4.822-2.774 10.762-0.008 13.24 6.172 2.474 6.18 0.576 13.47-4.246 16.254l-62.074 35.84c-4.776 2.756-10.752 0.02-13.238-6.162-2.522-6.302-0.42-13.564 4.246-16.254l62.072-35.85z m36.734-85.728c4.822-2.782 10.78 0.04 13.256 6.22 2.458 6.124 0.578 13.47-4.244 16.254l-119.818 69.184c-4.776 2.756-10.78-0.046-13.238-6.162-2.55-6.36-0.42-13.638 4.218-16.31l119.826-69.186z m-21-52.326c4.82-2.792 10.76-0.028 13.236 6.154 2.476 6.18 0.578 13.47-4.244 16.254l-119.826 69.176c-4.768 2.764-10.754 0.028-13.23-6.154-2.532-6.312-0.418-13.564 4.246-16.254l119.816-69.176z" fill="#CBDBF4" p-id="12219"></path><path d="M646.432 332.42l-27.648 105.936-86.2-40.122c-57.122-26.782-29.39-132.33 27.646-106.03 18.228-69.772 104.606-30.256 86.202 40.214z" fill="#FF6161" p-id="12220"></path><path d="M486.94 492.684l7.68-4.468c3.062-1.78 7.288-1.546 11.952 1.144l-7.68 4.468c-4.654-2.7-8.89-2.932-11.952-1.144z" fill="#DBE6FA" p-id="12221"></path><path d="M518.48 529.352l-7.68 4.468c3.024-1.768 4.906-5.51 4.924-10.836 0.028-10.668-7.512-23.774-16.832-29.156l7.68-4.468c14.43 8.332 22.742 33.7 11.908 39.992z" fill="#DBE6FA" p-id="12222"></path><path d="M498.892 493.828c9.32 5.38 16.86 18.488 16.832 29.156-0.028 10.706-7.616 15.034-16.942 9.654-9.282-5.36-16.822-18.414-16.794-29.138 0.036-10.66 7.624-15.034 16.904-9.68v0.008z" fill="#CBDBF4" p-id="12223"></path><path d="M352.592 401.12c-21.272 2.476-33.494-31.13-17.874-48.036 10.062-11.114 27.322-7.224 34.164 9.85 6.992 17.436-1.982 36.574-16.29 38.186z m36.742 91.508c-8.936 1.042-18.144-5.008-22.51-15.854-4.57-11.46-2.4-24.54 4.6-32.144 9.784-11.012 27.228-7.504 34.164 9.746 6.498 16.264-0.782 36.316-16.254 38.252z m36.706 91.536c-8.936 1.034-18.134-5.008-22.5-15.89-4.57-11.422-2.4-24.53 4.626-32.136 10.128-11.18 27.332-7.148 34.136 9.774 6.628 16.506-1.004 36.344-16.262 38.252z m36.742 91.5c-8.936 1.07-18.16-5-22.508-15.854-4.6-11.422-2.42-24.53 4.608-32.136 9.82-11.05 27.266-7.428 34.136 9.748 6.702 16.7-1.146 36.36-16.236 38.242zM499.5 767.2c-8.936 1.042-18.144-5-22.51-15.882-4.598-11.422-2.42-24.53 4.6-32.134 10.12-11.172 27.368-7.168 34.136 9.774 6.664 16.588-1.052 36.352-16.226 38.242z" fill="#E22525" p-id="12224"></path><path d="M352.592 401.12c-21.272 2.476-33.494-31.13-17.874-48.036 20.806-2.42 33.726 30.814 17.874 48.036z m36.742 91.508c-8.936 1.042-18.144-5.008-22.51-15.854-4.57-11.46-2.4-24.54 4.6-32.144 20.88-2.43 33.66 30.814 17.91 47.998z m36.706 91.536c-8.936 1.034-18.134-5.008-22.5-15.89-4.57-11.422-2.4-24.53 4.626-32.136 20.992-2.374 33.56 30.916 17.874 48.026z m36.742 91.5c-8.936 1.07-18.16-5-22.508-15.854-4.6-11.422-2.42-24.528 4.608-32.134 21.038-2.384 33.55 30.924 17.9 47.988zM499.5 767.2c-8.936 1.04-18.144-5-22.51-15.882-4.598-11.422-2.42-24.528 4.6-32.134 8.936-1.042 18.086 5.054 22.48 15.966 4.572 11.366 2.43 24.416-4.57 32.05z" fill="#F04343" p-id="12225"></path><path d="M302.406 646.144l-4.98-29.538c-0.336-1.992 1.238-4.28 4.692-6.284l4.98 29.548c-3.454 1.992-5.028 4.28-4.692 6.274z" fill="#BBCFEF" p-id="12226"></path><path d="M303.94 621.186l1.566 9.18 11.412 3.844 9.496-5.484-22.472-7.54z m168.952-59.858l-116.446 67.24c-6.182 3.584-16.106 4.832-22.12 2.82l-32.47-10.9c-2.624-0.874-4.068-2.206-4.402-3.732 0-0.056 0-0.094-0.028-0.14a3.024 3.024 0 0 1 0-0.876c-0.028-0.112 0-0.232 0.028-0.372 0.558-2.234 2.652-3.88 4.654-5.026l17.78-10.26-2.83-6.804-24.184 13.964c-10.91 6.34-12.112 14.866-0.54 18.73l13.172 4.402 19.326 6.498c6.014 2.04 14.15 2.262 22.154 1.024 15.734-2.4 12.884-2.858 128.736-69.744l-2.83-6.824z" fill="#DBE6FA" p-id="12227"></path><path d="M475.722 568.144l10.846 26.14-115.9 66.912c-11.42 6.61-29.76 8.956-40.866 5.224l-32.488-10.9c-4.952-1.678-7.634-4.22-8.118-7.124l-4.914-29.304c0.716 3.556 4.616 5.716 8.052 6.87l13.172 4.404 19.326 6.496c11.57 3.91 30.16 1.062 40.858-5.22l110.032-63.49v-0.008z" fill="#EBF2FF" p-id="12228"></path></svg>