<?xml version="1.0" standalone="no"?><!DOCTYPE svg PUBLIC "-//W3C//DTD SVG 1.1//EN" "http://www.w3.org/Graphics/SVG/1.1/DTD/svg11.dtd"><svg t="1749101978383" class="icon" viewBox="0 0 1024 1024" version="1.1" xmlns="http://www.w3.org/2000/svg" p-id="5773" xmlns:xlink="http://www.w3.org/1999/xlink" width="200" height="200"><path d="M735.8 815.4H300.6c-43.9 0-79.4-35.6-79.4-79.4V384.7c0-37.6 30.5-68.2 68.2-68.2H747c37.6 0 68.2 30.5 68.2 68.2V736c0 43.8-35.5 79.4-79.4 79.4z" fill="#F75999" p-id="5774"></path><path d="M747 316.5c37.6 0 68.2 30.5 68.2 68.2V736c0 43.8-35.5 79.4-79.4 79.4H300.6c-43.9 0-79.4-35.6-79.4-79.4V384.7c0-37.6 30.5-68.2 68.2-68.2H747m0-30H289.4c-54.1 0-98.2 44-98.2 98.2V736c0 29.2 11.4 56.7 32 77.4 20.7 20.7 48.1 32 77.4 32h435.2c29.2 0 56.7-11.4 77.3-32 20.7-20.7 32-48.1 32-77.3V384.7c0.1-54.1-43.9-98.2-98.1-98.2z" fill="#4F3B80" p-id="5775"></path><path d="M695 815.4H301.2c-44.8 0-81.1-36.3-81.1-81.1V397.7c0-44.8 36.3-81.1 81.1-81.1H695c44.8 0 81.1 36.3 81.1 81.1v336.6c0 44.8-36.3 81.1-81.1 81.1z" fill="#F48BB4" p-id="5776"></path><path d="M734.1 719.3H302.3c-44.8 0-81.1-36.3-81.1-81.1V301.5c0-44.8 36.3-81.1 81.1-81.1h431.8c44.8 0 81.1 36.3 81.1 81.1v336.6c0 44.9-36.3 81.2-81.1 81.2z" fill="#02A394" p-id="5777"></path><path d="M734.1 220.4c44.8 0 81.1 36.3 81.1 81.1v336.6c0 44.8-36.3 81.1-81.1 81.1H302.3c-44.8 0-81.1-36.3-81.1-81.1V301.5c0-44.8 36.3-81.1 81.1-81.1h431.8m0-30H302.3c-29.7 0-57.6 11.6-78.6 32.5-21 21-32.5 48.9-32.5 78.6v336.6c0 29.7 11.6 57.6 32.5 78.6 21 21 48.9 32.5 78.6 32.5h431.8c29.7 0 57.6-11.6 78.6-32.5 21-21 32.5-48.9 32.5-78.6V301.5c0-29.7-11.6-57.6-32.5-78.6-21-20.9-48.9-32.5-78.6-32.5z" fill="#4F3B80" p-id="5778"></path><path d="M696.1 719.9H302.3c-44.8 0-81.1-36.3-81.1-81.1V302.2c0-44.8 36.3-81.1 81.1-81.1h393.8c44.8 0 81.1 36.3 81.1 81.1v336.6c0.1 44.8-36.3 81.1-81.1 81.1z" fill="#7AD6C8" p-id="5779"></path><path d="M362 620.5v-42.8c0-23.5 23.6-42.4 52.9-42.4l206.7 0.2c29.3 0 52.8 18.9 52.8 42.5v42.8c0 23.5-23.6 42.4-52.9 42.4l-206.7-0.2c-29.3-0.1-52.9-19-52.8-42.5z m0 0" fill="#02A394" p-id="5780"></path><path d="M621.6 678.2c-0.1 0-0.1 0 0 0l-206.8-0.2c-17.6 0-34.2-5.6-46.8-15.7-13.6-10.9-21-25.7-21-41.7v-42.8c0-16 7.5-30.8 21.1-41.7 12.6-10.1 29.2-15.6 46.7-15.6h0.1l206.7 0.2c17.6 0 34.2 5.6 46.8 15.7 13.6 10.9 21 25.7 21 41.7v42.8c0 16-7.5 30.8-21.1 41.7-12.6 10-29.2 15.6-46.7 15.6zM414.8 550.3c-20.9 0-37.8 12.3-37.8 27.4v42.8c0 6.7 3.5 13.2 9.8 18.3 7.3 5.9 17.2 9.1 28 9.1l206.7 0.2h0.1c10.8 0 20.7-3.2 28-9.1 6.3-5.1 9.8-11.6 9.8-18.3v-42.8c0-15.1-17-27.4-37.8-27.5l-206.8-0.1c0.1 0 0 0 0 0zM362 620.5z" fill="#4F3B80" p-id="5781"></path><path d="M316 370c46-62 120.2-92.3 204.3-92.3 81.7 0 154.2 35.8 200.2 91.3l-88.3 77.5c-22.9-34.9-64.5-58.2-111.9-58.2-50 0-93.4 21.8-115.4 59.8L316 370z m0 4.1" fill="#F75999" p-id="5782"></path><path d="M404.9 463.1c-3.6 0-7.1-1.3-9.9-3.7l-88.9-78.1c-5.9-5.1-6.8-13.9-2.2-20.2 47-63.4 123.9-98.4 216.4-98.4 42.1 0 82.5 8.8 119.8 26.2 35.7 16.6 67.5 41 91.9 70.5 5.2 6.3 4.4 15.5-1.7 20.8L642 457.7c-3.3 2.9-7.6 4.2-11.9 3.6-4.3-0.6-8.1-3-10.5-6.6-10.1-15.3-24.3-28.2-41.2-37.2-17.6-9.3-37.7-14.3-58.1-14.3-45.2 0-83.5 19.6-102.4 52.3-2.2 3.9-6.1 6.6-10.6 7.3-0.8 0.3-1.6 0.3-2.4 0.3z m-68.3-94.9l65.4 57.5c26.3-33.1 69.2-52.4 118.2-52.4 25.3 0 50.3 6.1 72.2 17.8 16.1 8.6 30.4 20 42 33.5l64.8-56.9c-20-21.2-44.6-38.8-71.8-51.5-33.4-15.5-69.4-23.4-107.1-23.4-77.3-0.1-141.9 26.6-183.7 75.4z" fill="#4F3B80" p-id="5783"></path><path d="M336.1 368c48.7-51.4 105.4-74.9 182.8-74.9 51.3 0 102.9 14.2 148 46.9l-64.2 56.7c-29.6-17.2-52.5-23.8-84.5-23.6-29.6 0.2-75.4 6.3-116.5 51.8L336.1 368z m0 4.1" fill="#F48BB4" p-id="5784"></path><path d="M518.2 317.9c5.3 0 10.5 2.1 14.2 5.9 3.8 3.8 5.9 8.9 5.9 14.2v40.2c0 5.3-2.1 10.5-5.9 14.2-3.8 3.8-8.9 5.9-14.2 5.9-5.3 0-10.5-2.1-14.2-5.9-3.8-3.8-5.9-8.9-5.9-14.2V338c0-5.3 2.1-10.5 5.9-14.2 3.7-3.8 8.9-5.9 14.2-5.9z m0 0" fill="#4F3B80" p-id="5785"></path><path d="M260.1 475.1c-8.3 0-15-6.7-15-15V352.4c0-8.3 6.7-15 15-15s15 6.7 15 15v107.7c0 8.2-6.7 15-15 15z" fill="#FFFFFF" p-id="5786"></path><path d="M289.9 275.4c0-8.3-6.7-15-15-15-3 0-5.7 0.9-8 2.3 0 0-21.8 12.1-21.8 43.3 0 8.3 6.7 15 15 15s15-6.7 15-15c0-12.7 5.6-16.8 5.6-16.8s9.2-7.6 9.2-13.8z" fill="#FFFFFF" p-id="5787"></path></svg>