<?xml version="1.0" standalone="no"?><!DOCTYPE svg PUBLIC "-//W3C//DTD SVG 1.1//EN" "http://www.w3.org/Graphics/SVG/1.1/DTD/svg11.dtd"><svg class="icon" width="200px" height="200.00px" viewBox="0 0 1024 1024" version="1.1" xmlns="http://www.w3.org/2000/svg"><path d="M792.535364 431.749916h-53.10586V283.723743c33.243509 40.246884 53.10586 91.784152 53.10586 148.026173zM627.365255 208.769194v334.105044a90.04969 90.04969 0 0 1-41.187835 9.930664h-17.771577V198.942966c20.384533 0.732078 40.142448 4.077111 58.959412 9.826228zM456.23511 198.942966v353.86296h-17.771578c-14.739853 0-28.853088-3.553906-41.187835-9.930664V208.769194c18.712528-5.749116 38.470443-9.094149 58.959413-9.826228zM285.105988 283.619307v148.130609h-53.10586c0.001024-56.242021 19.967812-107.779289 53.10586-148.130609z" fill="#E54728" /><path d="M397.275697 147.301262v395.572976c-27.075624-13.798903-46.519206-40.874526-49.237621-73.072648l-3.240597-37.947238h-59.587055V182.634521l53.105861-16.726191 58.959412-18.607068zM739.429504 133.815669v297.934247H679.84245l-3.240597 37.947238c-2.822852 32.198122-22.161998 59.273745-49.237622 73.072648V166.327099l53.10586-15.367494 58.959413-17.143936zM568.300382 78.723471v474.081431H456.23511V102.349625l53.10586-11.185947z" fill="#F7B239" /><path d="M770.895548 644.172333l-19.966788 194.754251H273.606732l-19.862351-194.754251z" fill="#E6E6E6" /><path d="M750.92876 838.926584L740.057146 945.138305H284.47937l-10.872638-106.211721z" fill="#F95428" /><path d="M338.211848 165.90833v265.841586h-53.10586V182.634521zM509.34097 91.163678v461.641224h-53.10586V102.349625zM680.470091 150.855168v280.894748h-0.627641l-3.240597 37.947238c-2.822852 32.198122-22.161998 59.273745-49.237622 73.072648V166.327099l53.10586-15.471931z" fill="#E09B2D" /><path d="M792.535364 431.749916l-21.744253 212.422417H253.744381l-21.744253-212.422417h112.692914l3.240597 37.947238c2.822852 32.198122 22.161998 59.273745 49.237622 73.072648a90.04969 90.04969 0 0 0 41.187835 9.930664h147.608428c14.739853 0 28.853088-3.553906 41.187835-9.930664 27.075624-13.798903 46.41477-40.874526 49.237621-73.072648l3.240597-37.947238h112.901787z" fill="#F95428" /><path d="M364.137649 838.926584h-90.530917l-19.862351-194.754251h90.42648z" fill="#CCCCCC" /><path d="M375.009263 945.138305H284.47937l-10.872638-106.211721h90.530917zM322.531045 431.749916l21.639816 212.422417h-90.42648l-21.743229-212.422417z" fill="#E54728" /><path d="M699.287056 914.612187c-0.522182 0-1.045387 0-1.567569-0.104436a14.713232 14.713232 0 0 1-13.172284-16.202985l38.15611-373.724287a14.713232 14.713232 0 0 1 16.202985-13.172285 14.713232 14.713232 0 0 1 13.172285 16.204009l-38.15611 373.724287c-0.732078 7.631017-7.213272 13.275697-14.635417 13.275697z" fill="#FFFFFF" /><path d="M742.461228 477.642504m-14.739853 0a14.739853 14.739853 0 1 0 29.479706 0 14.739853 14.739853 0 1 0-29.479706 0Z" fill="#FFFFFF" /><path d="M807.275217 431.541043c0-55.509943-18.816964-109.66119-53.10586-153.044235V133.815669c0-4.599293-2.19521-8.990737-5.854576-11.812565-3.658342-2.822852-8.467532-3.658342-12.962388-2.404083l-112.065273 32.406994c-6.272321 1.777465-10.662742 7.631017-10.662742 14.217672v23.416257c-9.721791-2.090774-19.549043-3.658342-29.479706-4.599293V78.723471c0-4.494857-1.986338-8.676404-5.435807-11.499256-3.44947-2.822852-7.94535-3.868239-12.335771-3.031725L453.203385 87.923081c-6.795527 1.463132-11.708129 7.422145-11.708128 14.426544v82.794439c-9.930664 0.940951-19.757915 2.508519-29.479707 4.599293v-42.442095a14.662038 14.662038 0 0 0-6.063449-11.917001c-3.763802-2.822852-8.676404-3.553906-13.172284-2.19521l-112.064249 35.437695c-6.167885 1.986338-10.349433 7.631017-10.349433 14.112211v95.756827c-34.288896 43.487481-53.10586 97.638728-53.10586 153.253108 0 0.522182 0 1.045387 0.104436 1.673029l52.478219 513.388388c0.732078 7.526581 7.108836 13.276721 14.635416 13.276721h455.577776c7.526581 0 13.903339-5.749116 14.635417-13.276721l52.478218-513.388388c0.10546-0.731054 0.10546-1.25426 0.10546-1.880878z m-30.001888-14.53098h-22.998512v-83.944262c13.066825 26.134673 21.012175 54.673429 22.998512 83.944262z m-52.583678-263.540916v263.645352H679.84245c-7.631017 0-14.007775 5.854576-14.739853 13.485594l-3.240598 37.947238c-1.567568 17.562705-8.780841 33.139072-19.757915 45.16051V177.30315l82.585567-23.834003zM612.624378 220.059577v313.301743a76.508807 76.508807 0 0 1-26.447982 4.703729h-3.136161V214.728206a201.669573 201.669573 0 0 1 29.584143 5.331371zM553.560529 96.913818v441.047818h-82.585566V114.371062l82.585566-17.457244zM441.495257 214.728206v323.232406h-3.031725a76.53338 76.53338 0 0 1-26.447982-4.703729V220.059577c9.617355-2.508519 19.549043-4.285984 29.479707-5.331371z m-59.063849-47.35572v346.230918c-11.081511-12.021438-18.293759-27.597805-19.757915-45.16051l-3.240597-37.947238c-0.627642-7.631017-7.0044-13.485594-14.739854-13.485593h-44.847201V193.507159l82.585567-26.134673zM270.366135 417.010063h-23.102948c1.986338-29.37527 9.826227-57.914026 23.102948-83.944262v83.944262z m-0.313309 242.006559h484.430864l-16.935063 165.171133H286.987889L270.052826 659.016622z m27.702241 271.380805l-7.839889-76.73099h444.70616l-7.83989 76.73099H297.755067z m459.760347-300.964947H267.021102l-18.712529-182.941687h82.794439l2.090774 24.461644c2.299646 26.343546 14.322108 50.80519 33.765691 68.681204 19.549043 17.876014 44.847201 27.807702 71.399619 27.807702h147.8173c26.447982 0 51.850577-9.826227 71.399619-27.807702 19.549043-17.876014 31.57048-42.337658 33.765691-68.681204l2.090774-24.461644h82.794439l-18.711505 182.941687z" fill="#333333" /></svg>