<?xml version="1.0" standalone="no"?><!DOCTYPE svg PUBLIC "-//W3C//DTD SVG 1.1//EN" "http://www.w3.org/Graphics/SVG/1.1/DTD/svg11.dtd"><svg class="icon" width="200px" height="200.00px" viewBox="0 0 1024 1024" version="1.1" xmlns="http://www.w3.org/2000/svg"><path d="M685.498392 527.221079c-6.048091 15.120738-13.104708 33.870127-20.463372 55.442367-28.627834 83.868495-62.195914 212.292383-62.195914 353.21484h-180.941015c0-140.923481-33.567056-269.346345-62.195914-353.21484a1159.494841 1159.494841 0 0 0-20.463372-55.542708c18.447342-2.419441 35.382405-9.97981 49.191547-21.168829 18.649047 24.293727 44.252324 42.941751 73.888684 52.921561a2130.002976 2130.002976 0 0 1 8.567873 63.103077c0.806822 6.249796 1.512279 12.600957 2.217735 19.051434 2.217736 20.059961 19.152799 35.281041 39.313101 35.28104s37.095365-15.221079 39.313101-35.28104c0.705457-6.451501 1.410914-12.801638 2.217736-19.051434a2130.002976 2130.002976 0 0 1 8.567872-63.103077c29.534996-10.080151 55.240661-28.627834 73.888685-52.921561 13.711872 11.28936 30.545571 18.849729 49.093253 21.26917z" fill="#71A517" /><path d="M515.745373 661.894764l-9.676741 17.438815c2.923193 0 7.056618-0.806822 11.894476-2.217736 49.594957-14.112211 85.884525-56.85328 92.941143-107.960516 0.605116-4.132401 1.108868-7.66071 1.512278-10.281857 21.773945-7.358664 41.430496-19.454845 57.760443-35.079335-12.499592-3.730014-23.991681-9.878446-33.970467-17.842226-18.649047 24.293727-44.252324 42.941751-73.888685 52.921561a1617.474651 1617.474651 0 0 0-8.567872 63.103077c-0.705457 6.249796-1.512279 12.600957-2.217736 19.051434-1.209209 10.685267-10.181516 7.66071-17.942566 14.011871-9.779129 5.342634-27.319308 6.854912-17.844273 6.854912z" fill="#648E13" /><path d="M685.498392 527.221079c-18.447342-2.419441-35.382405-9.97981-49.191546-21.168829-18.649047 24.293727-44.252324 42.941751-73.888685 52.921561-15.724831 5.342634-32.559553 8.165485-50.099733 8.165485-17.540179 0-34.373878-2.923193-50.099732-8.165485-29.636361-10.080151-55.240661-28.627834-73.888685-52.921561-13.810165 11.189019-30.643864 18.749388-49.191547 21.168829-4.233766 0.605116-8.567872 0.806822-12.903002 0.806822h-1.512279c-8.265826 46.268354-48.687795 81.449054-97.275249 81.449054-54.635545 0-98.887869-44.252324-98.887869-98.887869 0-17.438815 4.535812-33.768762 12.499592-47.982338-35.784792-22.277697-59.676132-61.892844-59.676132-107.153695 0-69.554578 56.44987-126.004448 126.004448-126.004447 5.94775 0 11.794135 0.503752 17.540179 1.209208 9.778105-59.776473 61.692162-105.440735 124.290464-105.440734 25.806006 0 49.796663 7.762075 69.856624 21.168829 16.329947-34.373878 51.308941-58.264194 91.932615-58.264195 41.127426 0 76.509831 24.495433 92.537732 59.675109 20.362007-14.213576 45.159486-22.579743 71.872654-22.579743 62.599325 0 114.512359 45.664262 124.290464 105.440734a125.994209 125.994209 0 0 1 17.540179-1.209208c69.554578 0 126.004448 56.44987 126.004448 126.004447 0 45.260851-23.789976 84.875998-59.574768 107.053354 7.96378 14.213576 12.499592 30.543523 12.499592 47.982338 0 54.635545-44.252324 98.887869-98.887869 98.887869-48.687795 0-89.109764-35.1807-97.275249-81.449054h-1.612619c-4.33513 0.100341-8.670261-0.202729-12.904027-0.706481z" fill="#9AD14B" /><path d="M278.656534 510.589086c0-17.438815 4.535812-33.768762 12.499593-47.982338-35.784792-22.277697-59.574768-61.892844-59.574768-107.053354 0-69.554578 56.44987-126.004448 126.004447-126.004447 5.94775 0 11.794135 0.503752 17.54018 1.209208 9.778105-59.776473 61.692162-105.440735 124.290463-105.440735 25.806006 0 49.796663 7.762075 69.856624 21.16883 4.334107-9.172989 10.080151-17.64052 16.833699-24.999185-18.547683-20.362007-45.361192-33.16467-75.098917-33.164669-40.623674 0-75.602669 23.789976-91.932615 58.264194-19.958597-13.306414-44.050618-21.168829-69.856624-21.168829-62.599325 0-114.512359 45.664262-124.290464 105.440735a125.994209 125.994209 0 0 0-17.540179-1.209209c-69.554578 0-126.004448 56.44987-126.004448 126.004448 0 45.260851 23.789976 84.875998 59.574768 107.053354-7.96378 14.213576-12.499592 30.543523-12.499592 47.982338 0 54.635545 44.252324 98.887869 98.887868 98.887868 30.039772 0 56.953621-13.406754 75.098917-34.575583-14.817668-17.438815-23.788952-39.918217-23.788952-64.412626z" fill="#90BC42" /><path d="M412.825444 591.836434c14.515622 11.99584 31.24898 21.470875 49.393252 27.620331 2.822852 1.007503 5.64468 1.814325 8.567872 2.621146a2130.002976 2130.002976 0 0 0-8.567872-63.103076 154.171533 154.171533 0 0 1-57.760443-35.079335c-2.822852-2.721487-5.64468-5.544339-8.265827-8.467532 0-0.100341-0.100341-0.100341-0.10034-0.201705-1.209209-1.310573-2.318076-2.721487-3.528309-4.032061-0.100341-0.201705-0.302046-0.302046-0.503752-0.503751-1.310573-1.512279-2.519782-3.124898-3.730014-4.637177-13.810165 11.189019-30.643864 18.749388-49.191547 21.168829 6.048091 15.120738 13.104708 33.870127 20.463373 55.542707 28.627834 83.868495 62.195914 212.292383 62.195914 353.21484h49.998368c0.100341-136.085622-31.148639-260.274721-58.970675-344.143216zM685.498392 527.221079c-6.048091 15.120738-13.104708 33.870127-20.463372 55.442367-10.483562-3.730014-20.160302-9.274353-28.729198-16.128242-18.649047 24.293727-44.252324 42.941751-73.888685 52.921561-2.822852 1.007503-5.746044 1.814325-8.567872 2.621146a2130.002976 2130.002976 0 0 1 8.567872-63.103076c29.534996-10.080151 55.240661-28.627834 73.888685-52.921561 13.811189 11.187995 30.644888 18.748364 49.19257 21.167805z" fill="#648E13" /><path d="M436.110644 370.673109c-5.342634 0-10.583903-2.721487-13.508119-7.66071-0.403411-0.605116-0.705457-0.705457-1.108868-0.705457-0.302046 0-0.605116 0.100341-0.907163 0.40341-6.149455 6.048091-16.027901 6.048091-22.075991-0.10034-6.048091-6.149455-6.048091-16.027901 0.100341-22.075992s14.313917-9.374694 22.882813-9.374694c11.59243 0 22.075991 6.048091 28.023741 16.027901 4.435471 7.459005 1.915689 17.035404-5.544339 21.370535a15.610156 15.610156 0 0 1-7.862415 2.115347zM562.720207 400.209129a15.573296 15.573296 0 0 1-15.62449-15.62449c0-7.66071-6.249796-13.910506-13.910506-13.910507a15.573296 15.573296 0 0 1-15.62449-15.62449 15.573296 15.573296 0 0 1 15.62449-15.62449c24.898843 0 45.260851 20.261667 45.260851 45.260851-0.101365 8.466508-7.157982 15.523125-15.725855 15.523126zM833.679172 561.696322c-3.93172 0-7.862415-1.512279-10.886973-4.435471-6.149455-6.048091-6.350137-15.926536-0.302046-22.075992 6.451501-6.653207 10.080151-15.422785 10.080151-24.595773 0-6.048091-1.512279-11.794135-4.435471-17.035404l-9.274353-16.633017c-4.233766-7.560369-1.512279-17.035404 6.04809-21.26917 7.560369-4.233766 17.035404-1.512279 21.26917 6.048091l9.274353 16.633017c5.544339 9.97981 8.366167 20.866783 8.366167 32.257507 0 17.438815-6.753548 33.970467-18.951093 46.470059-3.022509 3.123874-7.154911 4.636153-11.187995 4.636153zM887.508919 405.148351c-2.318076 0-4.637177-0.503752-6.753548-1.512278-7.762075-3.730014-10.987313-13.104708-7.258323-20.866783 4.132401-8.467532 6.149455-17.64052 6.149456-27.21692 0-20.463372-10.080151-39.716512-27.116579-51.409282-7.156958-4.939223-8.870942-14.616987-4.032061-21.773945 4.939223-7.156958 14.616987-8.870942 21.773946-4.032061 25.402595 17.540179 40.623674 46.369719 40.623674 77.114947 0 14.313917-3.124898 28.023741-9.274354 40.82538-2.721487 5.544339-8.265826 8.870942-14.112211 8.870942zM752.331483 254.14472c-7.560369 0-14.112211-5.442974-15.422785-13.104708-4.233766-25.6043-23.184859-45.462556-48.486089-50.80519-8.467532-1.814325-13.910506-10.080151-12.096182-18.547683 1.814325-8.467532 10.080151-13.910506 18.547683-12.096181 38.002528 7.96378 66.631385 37.902187 72.981522 76.308125 1.410914 8.567872-4.334107 16.531652-12.903003 17.942567-0.907162 0.202729-1.713984 0.30307-2.621146 0.30307zM559.897355 183.280593a15.62449 15.62449 0 0 1-14.213576-9.172989c-6.149455-13.60846-19.757915-22.378038-34.675924-22.378038-8.669237 0-15.62449-6.955253-15.62449-15.62449s6.955253-15.62449 15.62449-15.62449c27.116579 0 51.914058 16.027901 63.103077 40.725039 3.528309 7.862415 0.100341 17.136769-7.762075 20.665077-2.116371 1.006479-4.334107 1.40989-6.451502 1.409891zM405.668485 210.698194c-3.024557 0-5.94775-0.806822-8.669237-2.621147l-13.104708-8.769577c-10.281856-6.854912-22.176332-10.483562-34.575584-10.483562-3.830355 0-7.66071 0.302046-11.390724 1.008527-8.467532 1.512279-16.633017-4.133425-18.144272-12.599933-1.512279-8.467532 4.133425-16.633017 12.599933-18.144272 5.544339-1.008527 11.290383-1.512279 17.035404-1.512279 18.547683 0 36.491273 5.442974 51.914058 15.724831l13.104708 8.769578c7.156958 4.838882 9.172989 14.515622 4.334107 21.672581-3.123874 4.536836-8.063097 6.955253-13.103685 6.955253z" fill="#FFFFFF" /><path d="M817.248884 277.430944m-15.62449 0a15.62449 15.62449 0 1 0 31.24898 0 15.62449 15.62449 0 1 0-31.24898 0Z" fill="#FFFFFF" /><path d="M533.083847 291.34145c-19.354504 0-37.800822 5.846385-53.324972 16.733358-15.019374-15.724831-36.087862-25.099525-58.264194-25.099525-44.353688 0-80.541891 36.087862-80.541892 80.541891s36.087862 80.541891 80.541892 80.541891c8.669237 0 15.62449-6.955253 15.62449-15.62449s-6.955253-15.62449-15.62449-15.62449c-27.116579 0-49.191547-22.075991-49.191547-49.191546 0-27.116579 22.075991-49.191547 49.191547-49.191547 17.540179 0 33.366375 9.072648 42.337658 24.293727 2.519782 4.233766 6.753548 6.955253 11.592429 7.56037 4.838882 0.605116 9.67674-1.108868 13.104709-4.637177 11.794135-12.197546 27.620331-18.850753 44.454029-18.850753 34.172173 0 61.892844 27.720671 61.892844 61.892844 0 8.669237 6.955253 15.62449 15.62449 15.62449s15.62449-6.955253 15.62449-15.62449c0.201705-51.511671-41.631177-93.344553-93.041483-93.344553z" fill="#333333" /><path d="M958.877822 355.452029c0-78.12245-63.506487-141.628938-141.628938-141.628937-1.713984 0-3.426944 0-5.242293 0.100341-16.531652-61.187387-71.872654-104.331867-136.689714-104.331867-23.2852 0-45.764602 5.64468-66.02627 16.329947-21.370535-32.962964-58.365559-53.425312-98.384117-53.425313-39.414466 0-76.10642 20.160302-97.67866 52.41781-19.757915-10.080151-41.632201-15.322444-64.010238-15.322444-64.81706 0-120.158062 43.043115-136.689715 104.331867-1.713984-0.100341-3.528309-0.100341-5.241269-0.100341-78.12245 0-141.628938 63.506487-141.628938 141.628937 0 44.555394 20.463372 85.582479 55.341002 112.395988a114.384373 114.384373 0 0 0-8.265826 42.741069c0 63.103076 51.409282 114.512359 114.512359 114.512359 47.075176 0 88.303966-28.426128 105.64244-70.360376 30.543523 81.449054 73.183227 223.178332 73.183227 381.137217a15.573296 15.573296 0 0 0 15.62449 15.62449h180.942039a15.573296 15.573296 0 0 0 15.62449-15.62449c0-157.958885 42.539364-299.688163 73.183227-381.137217a114.241029 114.241029 0 0 0 105.641416 70.360376c63.103076 0 114.512359-51.409282 114.512359-114.512359 0-14.616987-2.822852-29.23295-8.265826-42.741069 35.081383-26.713168 55.544755-67.740253 55.544755-112.395988zM587.315981 920.253796H437.320876c-2.721487-159.874574-46.470059-301.603852-77.013582-381.843698 8.870942-2.721487 17.338474-6.551842 25.30123-11.390724 17.540179 19.25314 38.90969 33.870127 62.49796 43.345161 3.528309 23.890316 6.653207 48.184043 9.374694 72.477771 3.124898 28.023741 26.713168 49.191547 54.83725 49.191546s51.712352-21.168829 54.837251-49.191546c2.721487-24.293727 5.846385-48.587454 9.374694-72.376406 23.58827-9.476059 44.957781-24.192362 62.49796-43.345162 7.96378 4.838882 16.431312 8.567872 25.30123 11.390725-30.542499 80.03814-74.292095 221.867759-77.013582 381.742333zM481.069448 579.941959c10.181516 1.814325 20.665078 2.822852 31.24898 2.822851s21.067464-1.007503 31.24898-2.822851c-2.721487 19.65655-5.242293 39.514806-7.459004 59.474426-1.310573 12.197546-11.59243 21.370535-23.789976 21.370535s-22.378038-9.172989-23.688611-21.370535c-2.217736-19.85928-4.737517-39.817876-7.560369-59.474426z m394.34329-130.641625c-7.056618 4.435471-9.475035 13.60846-5.442975 20.866783 6.854912 12.297887 10.483562 26.309757 10.483562 40.421969 0 45.865967-37.297071 83.263379-83.263378 83.263379-40.421969 0-74.795847-28.829539-81.852465-68.546051-1.310573-7.459005-7.862415-12.903003-15.422784-12.903003h-1.512279c-19.25314 0-37.297071-6.350137-52.317469-18.547683-3.326603-2.621146-7.459005-3.830355-11.69277-3.326603s-7.96378 2.621146-10.583903 5.94775c-26.914874 34.978994-67.538548 55.038956-111.589166 55.038955s-84.675316-20.059961-111.589166-55.038955c-2.519782-3.326603-6.350137-5.544339-10.583902-5.94775-4.233766-0.503752-8.366167 0.705457-11.692771 3.326603-14.919033 12.096181-33.063305 18.547683-52.316444 18.547683h-1.310573c-7.560369-0.100341-14.313917 5.342634-15.62449 12.903003-7.056618 39.716512-41.530837 68.546051-81.852465 68.546051-45.865967 0-83.263379-37.297071-83.263378-83.263379 0-14.112211 3.62865-28.124082 10.483561-40.421969 4.03206-7.258323 1.713984-16.531652-5.442974-20.866783-32.659894-20.362007-52.216104-55.341002-52.216104-93.74694 0-60.885341 49.494617-110.379957 110.379958-110.379957 5.040587 0 10.181516 0.403411 15.422784 1.108867 8.367191 1.209209 16.229606-4.535812 17.640521-13.003343 8.769578-53.526677 54.53418-92.336026 108.867678-92.336027 21.874286 0 43.043115 6.350137 61.187387 18.447342 3.830355 2.519782 8.467532 3.225239 12.903003 2.01603 4.334107-1.209209 8.064121-4.233766 9.979811-8.36719 14.213576-29.938407 44.655735-49.292911 77.719039-49.292912 33.668421 0 64.41365 19.858256 78.324156 50.50212 1.915689 4.233766 5.64468 7.358664 10.080151 8.567873a15.912202 15.912202 0 0 0 13.104708-2.217736c18.547683-12.903003 40.321628-19.757915 62.901371-19.757915 54.333499 0 100.098101 38.809349 108.867679 92.336026 1.410914 8.367191 9.172989 14.112211 17.64052 13.003344 5.242293-0.705457 10.383221-1.108868 15.422785-1.108868 60.885341 0 110.379957 49.494617 110.379957 110.379957-0.003072 38.406962-19.559281 73.487321-52.219175 93.849329z" fill="#333333" /></svg>