<?xml version="1.0" standalone="no"?><!DOCTYPE svg PUBLIC "-//W3C//DTD SVG 1.1//EN" "http://www.w3.org/Graphics/SVG/1.1/DTD/svg11.dtd"><svg class="icon" width="200px" height="200.00px" viewBox="0 0 1024 1024" version="1.1" xmlns="http://www.w3.org/2000/svg"><path d="M888.924952 667.39098c25.268466 0 45.713408 20.444942 45.713409 45.713408s-20.444942 45.713408-45.713409 45.713408-45.713408-20.444942-45.713408-45.713408 20.444942-45.713408 45.713408-45.713408zM944.808613 429.282352c1.887021 82.829251-46.866303 154.545251-117.533844 186.104469-46.237637 20.760299-85.450398 54.310973-114.492905 95.830547-62.908538 89.854128-167.126754 148.568832-285.080391 148.568832-193.862447 0-350.610076-158.529189-347.883469-353.021326C82.543587 318.773385 236.459149 165.800822 424.450638 164.123698c59.029037-0.524229 114.702801 13.629961 163.667045 39.108324 45.189179 23.590318 95.62065 35.438719 146.471915 32.502216 5.556626-0.314333 11.218712-0.419793 16.775337-0.209897 105.266674 2.621146 191.031404 88.595773 193.443678 193.758011z m-316.849504 0.419793c0-81.46646-66.053914-147.62481-147.62481-147.62481-81.46646 0-147.520374 66.053914-147.520374 147.62481 0 81.46646 66.053914 147.62481 147.520374 147.62481 81.570896 0 147.62481-66.15835 147.62481-147.62481z" fill="#E6E6E6" /><path d="M148.177708 506.764874c2.51671-177.61134 139.971267-323.873358 313.703105-340.964052-12.26717-1.152895-24.744237-1.782584-37.430175-1.677124C236.459149 165.800822 82.543587 318.773385 79.81698 506.764874 76.985938 701.257011 233.838002 859.7862 427.70045 859.7862c11.533044 0 22.961652-0.628666 34.180363-1.677124C284.059577 840.808485 145.556562 689.618507 148.177708 506.764874z" fill="#CCCCCC" /><path d="M480.334299 282.076311c81.46646 0 147.62481 66.053914 147.62481 147.62481 0 81.46646-66.053914 147.62481-147.62481 147.62481-81.46646 0-147.520374-66.053914-147.520374-147.62481 0-81.465436 66.053914-147.62481 147.520374-147.62481z" fill="#F7B239" /><path d="M421.724031 429.702145c0-66.053914 43.302158-121.937575 103.169757-140.809829a148.19921 148.19921 0 0 0-44.455053-6.814981c-81.46646 0-147.520374 66.053914-147.520374 147.62481 0 81.46646 66.053914 147.62481 147.520374 147.62481 15.516982 0 30.405299-2.41125 44.455053-6.81498-59.867599-18.872254-103.169757-74.755915-103.169757-140.80983z" fill="#E09B2D" /><path d="M842.371958 561.39018c-4.8225 0-9.540563-1.992481-12.895835-5.870958-6.186315-7.129314-5.452189-17.929256 1.677124-24.114547 28.938071-25.268466 45.084743-61.86008 44.245156-100.444175-0.734126-32.922009-14.259651-64.166893-37.849968-87.861647-23.695778-23.695778-54.939639-37.221303-87.967108-38.059865-3.774041-0.104436-7.33921 0-10.904379 0.209896-61.755643 3.565169-125.397284-10.484586-182.643736-40.261219-12.26717-6.395188-24.954133-11.847377-37.849969-16.251107-8.911898-3.040939-13.629961-12.791399-10.590045-21.703298s12.791399-13.629961 21.703297-10.590046c14.468524 5.032396 28.728174 11.114275 42.463596 18.243589 51.794263 26.94559 109.146176 39.736989 164.81994 36.487178 4.613627-0.314333 9.121794-0.314333 13.839858-0.209897 41.833907 1.048459 81.362023 18.138129 111.243093 48.124658s46.866303 69.513622 47.914761 111.243093c1.152895 48.754348-19.292047 95.096421-55.883661 127.075431-3.353224 2.514662-7.337162 3.982914-11.322124 3.982914zM467.542899 236.153007c-0.734126 0-1.468252 0-2.306813-0.104436-12.26717-1.677124-24.954133-2.51671-37.535636-2.516711h-2.621147c-9.331691 0.104436-17.19513-7.44467-17.299566-16.880797-0.104436-9.436127 7.44467-17.19513 16.880797-17.299566h2.935479c14.154191 0 28.308381 0.944022 42.043803 2.725582 9.331691 1.258355 15.936775 9.85592 14.67842 19.186587-0.942998 8.704049-8.282208 14.88934-16.775337 14.889341zM547.646568 514.104084c-4.403731 0-8.702001-1.677124-12.057274-5.032396a17.085574 17.085574 0 0 1 0-24.220007c14.78388-14.78388 22.857216-34.39026 22.857216-55.149536 0-24.954133-12.162734-48.648887-32.50324-63.327307-7.653543-5.556626-9.436127-16.251108-3.879501-23.905675 5.556626-7.653543 16.251108-9.436127 23.905674-3.879501 29.252404 21.074632 46.65743 55.149535 46.657431 91.112483 0 29.98653-11.638504 58.085014-32.922009 79.369543-3.356296 3.354248-7.760027 5.032396-12.058297 5.032396z" fill="#FFFFFF" /><path d="M495.432512 334.6047m-17.08967 0a17.08967 17.08967 0 1 0 34.17934 0 17.08967 17.08967 0 1 0-34.17934 0Z" fill="#FFFFFF" /><path d="M961.898283 428.862559c-1.258355-55.254995-23.695778-107.469051-63.118434-146.996144-39.422657-39.527093-91.636713-62.069976-146.891708-63.537204-6.080855-0.104436-12.26717-0.104436-18.243589 0.314333-46.342074 2.725583-93.943526-7.863439-137.664454-30.615195-52.633849-27.365383-111.977219-41.519574-171.740381-40.995345-95.410754 0.838562-185.474779 38.688531-253.73107 106.420593-68.149807 67.835474-106.522981 157.690627-107.886797 253.101381-1.468252 98.55613 35.857488 191.451197 104.952342 261.594509S329.03886 876.98133 427.490553 876.98133c119.002096 0 230.769418-58.294911 299.129122-155.803606 27.994049-39.946886 65.215352-71.08631 107.469051-90.064025 79.789336-35.753052 129.802038-115.122594 127.809557-202.25114zM698.836546 701.465884c-61.964516 88.491337-163.352712 141.229622-271.135073 141.229622-89.225463 0-172.893276-35.018926-235.591917-98.55613s-96.459213-147.73027-95.096421-237.060169c1.258355-86.39442 35.962948-167.86088 97.823027-229.301166 61.754619-61.440287 143.430976-95.726111 229.929832-96.564673h2.935479c53.158078 0 105.790903 12.791399 152.658231 37.221303 49.06868 25.582799 102.855424 37.430176 155.383813 34.390261 5.032396-0.314333 10.274689-0.419793 15.412546-0.209897 46.447534 1.152895 90.378358 20.235046 123.614699 53.472411 33.236342 33.341802 52.10962 77.168189 53.158078 123.72016 1.677124 73.393124-40.471115 140.181164-107.363591 170.167693-48.231142 21.28248-90.274945 56.406866-121.728703 101.490585zM888.924952 650.300286c-34.599133 0-62.804102 28.203945-62.804102 62.804102s28.203945 62.804102 62.804102 62.804102 62.804102-28.203945 62.804102-62.804102-28.204969-62.804102-62.804102-62.804102z m0 91.42784c-15.726879 0-28.623738-12.791399-28.623738-28.623738 0-15.726879 12.791399-28.623738 28.623738-28.623738 15.726879 0 28.623738 12.791399 28.623739 28.623738-0.001024 15.726879-12.89686 28.623738-28.623739 28.623738z" fill="#333333" /><path d="M480.334299 264.986641c-90.798151 0-164.715504 73.917353-164.715504 164.715504s73.917353 164.715504 164.715504 164.715504 164.715504-73.917353 164.715503-164.715504-73.917353-164.715504-164.715503-164.715504z m0 295.145184c-71.924872 0-130.53514-58.504807-130.535141-130.53514 0-71.924872 58.504807-130.53514 130.535141-130.53514 71.924872 0 130.53514 58.504807 130.53514 130.53514s-58.504807 130.53514-130.53514 130.53514z" fill="#333333" /><path d="M750.420913 486.004575m-17.08967 0a17.08967 17.08967 0 1 0 34.17934 0 17.08967 17.08967 0 1 0-34.17934 0Z" fill="#333333" /><path d="M477.608716 694.650903m-17.08967 0a17.08967 17.08967 0 1 0 34.17934 0 17.08967 17.08967 0 1 0-34.17934 0Z" fill="#333333" /><path d="M235.620586 350.961268m-17.089669 0a17.08967 17.08967 0 1 0 34.179339 0 17.08967 17.08967 0 1 0-34.179339 0Z" fill="#333333" /></svg>